<svg xmlns="http://www.w3.org/2000/svg" fill="none" viewBox="-20 0 125 125" stroke-width="5" stroke="currentColor" class="icon">
    <path d="M15.63,54.29c0.21-0.13,0.44-0.19,0.67-0.17c-0.4-2.06-0.34-4.04-0.25-6.35c0.13-3.61,0.73-6.79,2.2-9.66h27.18 C42.7,52.03,25.07,51.48,20.56,54.15v8.73c-0.87-1.23-1.66-2.48-2.37-3.76c-0.59-1.07-1.03-2.06-1.36-3.01h0l-0.02,0.02 c-0.4,0.26-0.72,0.6-0.97,1.03c-0.26,0.46-0.44,1.03-0.53,1.71c-0.21,1.56-0.12,3.24,0.38,4.74c0.42,1.25,1.12,2.38,2.18,3.19 c0.37,0.28,0.77,0.53,1.2,0.73c0.44,0.21,0.92,0.38,1.44,0.5c0.36,0.09,0.63,0.34,0.76,0.66v0c1.04,2.6,2.19,3.93,3.47,5.96 c1.26,2,2.65,3.7,4.17,5.08c1.63,1.48,3.24,2.51,4.82,3.17c2.9,1.22,5.69,1.14,8.28,0.19c2.67-0.98,5.14-2.9,7.33-5.32 c2.76-3.06,5.05-5.92,6.66-9.77c0.1-0.24,0.28-0.43,0.49-0.54c1.77-1.17,3.06-2.52,3.89-3.88c0.63-1.04,0.97-2.08,1.03-3.05 c0.05-0.91-0.15-1.77-0.63-2.49c-0.25-0.38-0.58-0.74-0.99-1.05c-0.82,1.87-2.21,4.34-4,6.78V52.57c-4.91-2.27-8.2-7.15-9.97-14.45 h11.95c2.03,4.01,3.5,9.23,3.46,12.82c-0.01,1.15-0.2,2.33-0.6,3.53c-0.02,0.12-0.04,0.25-0.08,0.39c0.87,0.55,1.55,1.22,2.05,1.97 c0.74,1.13,1.07,2.44,0.99,3.82c-0.08,1.32-0.53,2.71-1.35,4.06c-0.95,1.57-2.41,3.11-4.35,4.43c-1.69,3.96-4.07,6.91-6.93,10.09 c-2.41,2.67-5.18,4.8-8.2,5.91c-3.1,1.14-6.43,1.23-9.88-0.22c-1.79-0.75-3.61-1.92-5.43-3.56c-1.67-1.51-3.19-3.37-4.56-5.54 c-1.27-2.01-2.41-3.29-3.45-5.8c-0.46-0.14-0.89-0.3-1.3-0.49c-0.58-0.28-1.12-0.6-1.61-0.97c-1.43-1.1-2.38-2.58-2.93-4.23 c-0.61-1.83-0.73-3.86-0.48-5.73c0.13-0.96,0.4-1.79,0.8-2.5C14.36,55.34,14.93,54.74,15.63,54.29L15.63,54.29L15.63,54.29z M18.57,35.71h39.42l5.81-12.21c0.32,0.11,0.65,0.16,0.99,0.16c1.82,0,3.3-1.48,3.3-3.3c0-1.82-1.48-3.3-3.3-3.3 c-1.82,0-3.3,1.48-3.3,3.3c0,0.72,0.23,1.38,0.62,1.92l-3.41,2.81c-4.76,3.92-7.76,2.1-6.83-3.99l0.53-3.42 c0.18,0.04,0.37,0.05,0.56,0.05c1.82,0,3.3-1.48,3.3-3.3c0-1.82-1.48-3.3-3.3-3.3s-3.3,1.48-3.3,3.3c0,1.04,0.48,1.98,1.24,2.58 l-0.81,1.29c-4.01,6.02-6.97,3.71-8.15-2.24l-2.12-9.72c1.18-0.49,2.01-1.67,2.01-3.03c0-1.82-1.48-3.3-3.3-3.3 c-1.82,0-3.3,1.48-3.3,3.3c0,1.52,1.02,2.81,2.44,3.18l-1.36,5.54c-1.18,5.08-2.61,15.19-9.03,6.56l-1.04-1.43 c0.83-0.6,1.38-1.57,1.38-2.68c0-1.82-1.48-3.3-3.3-3.3c-1.82,0-3.3,1.48-3.3,3.3s1.48,3.3,3.3,3.3c0.25,0,0.51-0.04,0.74-0.09 l0.21,2.24c0.43,3.05,0.99,7.2-2.52,7.01c-1.75-0.11-2.4-0.69-3.72-1.64l-3.79-2.7c0.42-0.55,0.69-1.25,0.69-2.01 c0-1.82-1.48-3.3-3.3-3.3c-1.82,0-3.3,1.48-3.3,3.3c0,1.82,1.48,3.3,3.3,3.3c0.42,0,0.83-0.09,1.22-0.23L18.6,35.7L18.57,35.71 L18.57,35.71z M55.23,90.28c-0.67-0.18-1.06-0.87-0.89-1.53c0.18-0.67,0.86-1.06,1.53-0.89c0.8,0.21,0.96,0.26,1.16,0.31 c5.43,1.44,10.14,2.69,14.14,7.54c3.32,4.03,3.64,7.06,4.1,11.33c0.07,0.66,0.14,1.34,0.26,2.3l0.94,7.54 c0.07,0.57-0.25,1.1-0.76,1.31c-6.55,3.32-21.29,4.69-36.04,4.69c-17.39,0-34.93-1.93-39.13-4.81c-0.41-0.28-0.6-0.76-0.53-1.22 l0,0l1.6-10.65c1-6.66,3.09-10.68,6.36-13.32c3.22-2.6,7.48-3.75,12.92-4.71c0.68-0.12,1.33,0.34,1.45,1.02 c0.12,0.68-0.34,1.33-1.02,1.45c-5.06,0.9-8.98,1.93-11.78,4.19c-2.76,2.23-4.54,5.77-5.44,11.74l-1.48,9.81 c2.3,1.15,7.15,2.1,13.35,2.79c-7.71-14.73,15.45-25.94,22.12-7.64c8.48-18.55,30.03-6.76,22.25,7.05 c-0.16,0.28-0.33,0.54-0.51,0.79c5.88-0.66,10.85-1.67,14.05-3.09l-0.83-6.65c-0.09-0.69-0.18-1.54-0.26-2.35 c-0.41-3.83-0.69-6.55-3.53-10c-3.48-4.22-7.83-5.38-12.85-6.71L55.23,90.28L55.23,90.28L55.23,90.28z M26.13,88.01 c0.85,0,1.54,0.69,1.54,1.54c0,0.85-0.69,1.54-1.54,1.54c-0.85,0-1.54-0.69-1.54-1.54C24.59,88.7,25.28,88.01,26.13,88.01 L26.13,88.01z M50.32,88.01c-0.85,0-1.54,0.69-1.54,1.54c0,0.85,0.69,1.54,1.54,1.54c0.85,0,1.54-0.69,1.54-1.54 C51.86,88.7,51.17,88.01,50.32,88.01L50.32,88.01z M47.35,91.4c-0.85,0-1.54,0.69-1.54,1.54c0,0.85,0.69,1.54,1.54,1.54 c0.85,0,1.54-0.69,1.54-1.54C48.89,92.09,48.2,91.4,47.35,91.4L47.35,91.4z M43.39,93.76c-0.85,0-1.54,0.69-1.54,1.54 c0,0.85,0.69,1.54,1.54,1.54c0.85,0,1.54-0.69,1.54-1.54C44.92,94.45,44.24,93.76,43.39,93.76L43.39,93.76z M38.23,94.12l2.65,2.65 l-2.65,2.65l-2.65-2.65L38.23,94.12L38.23,94.12z M38.23,95.86l0.91,0.91l-0.91,0.91l-0.91-0.91L38.23,95.86L38.23,95.86z M33.06,93.76c0.85,0,1.54,0.69,1.54,1.54c0,0.85-0.69,1.54-1.54,1.54s-1.54-0.69-1.54-1.54C31.52,94.45,32.21,93.76,33.06,93.76 L33.06,93.76z M29.1,91.4c0.85,0,1.54,0.69,1.54,1.54c0,0.85-0.69,1.54-1.54,1.54c-0.85,0-1.54-0.69-1.54-1.54 C27.56,92.09,28.25,91.4,29.1,91.4L29.1,91.4z"></path>
</svg>